{"title":"The Big Bang Theory S03E04 - Fuer ihn oder mit ihm - German","uid":6164936,"size":181454199,"categoryP":"video","categoryS":"tv_shows","magnet":"?xt=urn:btih:342580a648e92b3d7abf15bae6a9c29e5ba40380&amp;dn=The+Big+Bang+Theory+S03E04+-+Fuer+ihn+oder+mit+ihm+-+German&amp;tr=udp%3A%2F%2Ftracker.openbittorrent.com%3A80&amp;tr=udp%3A%2F%2Fopen.demonii.com%3A1337&amp;tr=udp%3A%2F%2Ftracker.coppersurfer.tk%3A6969&amp;tr=udp%3A%2F%2Fexodus.desync.com%3A6969","seeders":0,"leechers":0,"uploader":null,"files":1,"time":1297352944,"description":"The Big Bang Theory - S03E04 - FÃƒÂ¼r ihn oder mit ihm (The Pirate Solution)\n\n\nInhalt:\n---\nThanksgiving steht vor der TÃƒÂ¼r und Penny lÃƒÂ¤dt alle ein um bei ihr zu essen. Doch Raj bricht bei der Einladung in TrÃƒÂ¤nen aus. Er soll ausgewiesen werden, weil sein Visum nicht verlÃƒÂ¤ngert wird. Allerdings ist Raj nicht ganz unschuldig, denn die letzten Monate hat er nicht besonders viel gearbeitet. Eine LÃƒÂ¶sung wÃƒÂ¤re, wenn er eine neue Anstellung bei der UniversitÃƒÂ¤t findet. Doch dies endet in einem Desaster. Es bleibt Raj wohl nichts weiter ÃƒÂ¼brig, als fÃƒÂ¼r Sheldon zu arbeiten. Raj bevorzugt den Term mit Sheldon arbeiten, Sheldon sieht es eher als fÃƒÂ¼r Sheldon arbeiten. Doch werden sie die beiden Freunde auch beruflich verstehen?\n\n\nVideo: Xvid 624x352 25.00fps 1024kbps\nAudio: MPEG Audio Layer 3 48000Hz stereo 160kbps\n\n-------------------------\n\nFormat : AVI\nFormat/Info : Audio Video Interleave\nFile size : 175 MiB\nDuration : 20mn 26s\nOverall bit rate : 1 197 Kbps\nWriting application : MEncoder Sherpya-SVN-r30075-4.2.5\nWriting library : MPlayer\nCopyright : SOF\n\nVideo\nID : 0\nFormat : MPEG-4 Visual\nFormat profile : Advanced Simple@L5\nFormat settings, BVOP : Yes\nFormat settings, QPel : No\nFormat settings, GMC : No warppoints\nFormat settings, Matrix : Default (H.263)\nCodec ID : XVID\nCodec ID/Hint : XviD\nDuration : 20mn 25s\nBit rate : 1 024 Kbps\nWidth : 624 pixels\nHeight : 352 pixels\nDisplay aspect ratio : 16:9\nFrame rate : 25.000 fps\nColor space : YUV\nChroma subsampling : 4:2:0\nBit depth : 8 bits\nScan type : Progressive\nBits/(Pixel*Frame) : 0.187\nStream size : 150 MiB (86%)\nWriting library : XviD 1.2.1 (UTC 2008-12-04)\n\nAudio\nID : 1\nFormat : MPEG Audio\nFormat version : Version 1\nFormat profile : Layer 3\nCodec ID : 55\nCodec ID/Hint : MP3\nDuration : 20mn 26s\nBit rate mode : Variable\nBit rate : 160 Kbps\nChannel(s) : 2 channels\nSampling rate : 48.0 KHz\nBit depth : 16 bits\nStream size : 23.4 MiB (13%)\nAlignment : Aligned on interleaves\nInterleave, duration : 24 ms (0.60 video frame)\nInterleave, preload duration : 119 ms\n","torrent":{"xt":"urn:btih:342580a648e92b3d7abf15bae6a9c29e5ba40380","amp;dn":"The+Big+Bang+Theory+S03E04+-+Fuer+ihn+oder+mit+ihm+-+German","amp;tr":["udp%3A%2F%2Ftracker.openbittorrent.com%3A80","udp%3A%2F%2Fopen.demonii.com%3A1337","udp%3A%2F%2Ftracker.coppersurfer.tk%3A6969","udp%3A%2F%2Fexodus.desync.com%3A6969"],"infoHash":"342580a648e92b3d7abf15bae6a9c29e5ba40380","infoHashBuffer":{"type":"Buffer","data":[52,37,128,166,72,233,43,61,122,191,21,186,230,169,194,158,91,164,3,128]},"announce":[],"urlList":[]}}